<?xml version="1.0" standalone="no"?>
<!DOCTYPE svg PUBLIC "-//W3C//DTD SVG 20010904//EN"
 "http://www.w3.org/TR/2001/REC-SVG-20010904/DTD/svg10.dtd">
<svg version="1.0" xmlns="http://www.w3.org/2000/svg"
 width="612.000000pt" height="612.000000pt" viewBox="0 0 612.000000 612.000000"
 preserveAspectRatio="xMidYMid meet">
<metadata>
Created by potrace 1.11, written by Peter Selinger 2001-2013
</metadata>
<g transform="translate(0.000000,612.000000) scale(0.100000,-0.100000)"
fill="#000000" stroke="none">
<path d="M3057 5044 c-1 -1 -45 -4 -97 -8 -210 -13 -422 -67 -594 -152 -334
-165 -614 -472 -756 -829 -18 -44 -36 -89 -41 -100 -26 -62 -75 -271 -99 -418
-31 -199 -34 -603 -5 -820 27 -209 90 -441 161 -594 19 -41 34 -76 34 -78 0
-12 108 -184 154 -245 255 -340 598 -532 1066 -597 71 -10 449 -10 519 0 163
23 340 75 471 139 350 170 627 496 764 900 38 111 79 288 70 297 -3 3 -174 6
-380 6 l-374 0 -30 -93 c-107 -329 -271 -501 -545 -571 -96 -25 -300 -33 -395
-17 -237 41 -458 205 -587 436 -74 133 -125 310 -150 520 -10 84 -10 465 0
550 42 359 148 614 331 795 147 146 318 215 536 218 132 2 214 -7 310 -34 253
-70 406 -228 498 -514 l27 -84 50 -1 c147 -3 717 -1 721 3 4 4 -8 97 -21 172
-13 68 -51 176 -97 275 -163 345 -431 597 -769 723 -162 61 -332 98 -519 113
-83 7 -248 12 -253 8z"/>
</g>
</svg>
